<svg width="16" height="17" viewBox="0 0 16 17" fill="none" xmlns="http://www.w3.org/2000/svg">
<path d="M6.01995 14.96L7.57329 13.6533C7.80662 13.4533 8.19329 13.4533 8.42662 13.6533L9.97995 14.96C10.34 15.14 10.78 14.96 10.9133 14.5733L11.2066 13.6866C11.28 13.4733 11.2066 13.16 11.0466 13L9.53329 11.48C9.41995 11.3733 9.33329 11.16 9.33329 11.0066V9.10663C9.33329 8.82663 9.53995 8.6933 9.79995 8.79997L13.0733 10.2133C13.5866 10.4333 14.0066 10.16 14.0066 9.59997V8.73997C14.0066 8.2933 13.6733 7.77997 13.26 7.60663L9.53329 5.99997C9.47617 5.97064 9.42768 5.92694 9.39261 5.87316C9.35754 5.81938 9.33709 5.75739 9.33329 5.6933V3.6933C9.33329 3.06663 8.87329 2.32663 8.31329 2.03997C8.11329 1.93997 7.87995 1.93997 7.67995 2.03997C7.11995 2.32663 6.65995 3.0733 6.65995 3.69997V5.69997C6.65995 5.81997 6.56662 5.95997 6.45995 6.00663L2.73995 7.6133C2.32662 7.77997 1.99329 8.2933 1.99329 8.73997V9.59997C1.99329 10.16 2.41329 10.4333 2.92662 10.2133L6.19995 8.79997C6.45329 8.68663 6.66662 8.82663 6.66662 9.10663V11.0066C6.66662 11.16 6.57995 11.3733 6.47329 11.48L4.95995 13C4.79995 13.16 4.72662 13.4666 4.79995 13.6866L5.09329 14.5733C5.21329 14.96 5.65329 15.1466 6.01995 14.96Z" stroke="#565656" stroke-width="1.1" stroke-linecap="round" stroke-linejoin="round"/>
</svg>
