<svg width="12" height="12" viewBox="0 0 12 12" fill="none" xmlns="http://www.w3.org/2000/svg">
<path d="M6.74379 1.84779L7.60455 3.5693C7.72192 3.80894 8.03493 4.0388 8.29902 4.08282L9.85914 4.34203C10.8568 4.50831 11.0916 5.23213 10.3727 5.94616L9.15978 7.15905C8.95437 7.36445 8.84188 7.7606 8.90546 8.04426L9.2527 9.54569C9.52658 10.7341 8.89568 11.1938 7.84419 10.5727L6.38188 9.70708C6.11779 9.55058 5.68252 9.55058 5.41353 9.70708L3.95122 10.5727C2.90462 11.1938 2.26884 10.7292 2.54271 9.54569L2.88995 8.04426C2.95353 7.7606 2.84104 7.36445 2.63564 7.15905L1.42275 5.94616C0.708716 5.23213 0.938577 4.50831 1.93627 4.34203L3.49639 4.08282C3.7556 4.0388 4.0686 3.80894 4.18598 3.5693L5.04673 1.84779C5.51624 0.913673 6.27918 0.913673 6.74379 1.84779Z" fill="black"/>
</svg>
