<svg width="17" height="17" viewBox="0 0 17 17" fill="none" xmlns="http://www.w3.org/2000/svg">
<path d="M8.50004 9.5129C8.79026 9.5129 9.07764 9.45573 9.34577 9.34467C9.6139 9.23361 9.85753 9.07082 10.0627 8.8656C10.268 8.66038 10.4307 8.41676 10.5418 8.14863C10.6529 7.8805 10.71 7.59312 10.71 7.3029C10.71 7.01267 10.6529 6.72529 10.5418 6.45717C10.4307 6.18904 10.268 5.94541 10.0627 5.74019C9.85753 5.53497 9.6139 5.37218 9.34577 5.26112C9.07764 5.15006 8.79026 5.0929 8.50004 5.0929C7.91391 5.0929 7.35179 5.32573 6.93733 5.74019C6.52288 6.15464 6.29004 6.71677 6.29004 7.3029C6.29004 7.88902 6.52288 8.45115 6.93733 8.8656C7.35179 9.28006 7.91391 9.5129 8.50004 9.5129Z" stroke="#565656" stroke-width="1.1875"/>
<path d="M2.56416 6.01371C3.95958 -0.120456 13.0475 -0.113372 14.4358 6.02079C15.2504 9.61913 13.0121 12.665 11.05 14.5491C10.3644 15.2104 9.44899 15.5799 8.49646 15.5799C7.54392 15.5799 6.62853 15.2104 5.94291 14.5491C3.98791 12.665 1.74958 9.61204 2.56416 6.01371Z" stroke="#565656" stroke-width="1.1875"/>
</svg>
