<svg width="17" height="17" viewBox="0 0 17 17" fill="none" xmlns="http://www.w3.org/2000/svg">
<path d="M8.50004 9.51302C8.79026 9.51302 9.07764 9.45585 9.34577 9.34479C9.6139 9.23373 9.85753 9.07094 10.0627 8.86572C10.268 8.66051 10.4307 8.41688 10.5418 8.14875C10.6529 7.88062 10.71 7.59324 10.71 7.30302C10.71 7.0128 10.6529 6.72542 10.5418 6.45729C10.4307 6.18916 10.268 5.94553 10.0627 5.74031C9.85753 5.53509 9.6139 5.37231 9.34577 5.26124C9.07764 5.15018 8.79026 5.09302 8.50004 5.09302C7.91391 5.09302 7.35179 5.32586 6.93733 5.74031C6.52288 6.15477 6.29004 6.71689 6.29004 7.30302C6.29004 7.88915 6.52288 8.45127 6.93733 8.86572C7.35179 9.28018 7.91391 9.51302 8.50004 9.51302Z" stroke="#565656" stroke-width="1.1875"/>
<path d="M2.56416 6.01383C3.95958 -0.120334 13.0475 -0.11325 14.4358 6.02092C15.2504 9.61925 13.0121 12.6651 11.05 14.5492C10.3644 15.2105 9.44899 15.58 8.49646 15.58C7.54392 15.58 6.62853 15.2105 5.94291 14.5492C3.98791 12.6651 1.74958 9.61217 2.56416 6.01383Z" stroke="#565656" stroke-width="1.1875"/>
</svg>
