<svg width="16" height="17" viewBox="0 0 16 17" fill="none" xmlns="http://www.w3.org/2000/svg">
<path d="M6.01995 14.9601L7.57329 13.6534C7.80662 13.4534 8.19329 13.4534 8.42662 13.6534L9.97995 14.9601C10.34 15.1401 10.78 14.9601 10.9133 14.5734L11.2066 13.6868C11.28 13.4734 11.2066 13.1601 11.0466 13.0001L9.53329 11.4801C9.41995 11.3734 9.33329 11.1601 9.33329 11.0068V9.10675C9.33329 8.82675 9.53995 8.69342 9.79995 8.80009L13.0733 10.2134C13.5866 10.4334 14.0066 10.1601 14.0066 9.60009V8.74009C14.0066 8.29342 13.6733 7.78009 13.26 7.60675L9.53329 6.00009C9.47617 5.97076 9.42768 5.92706 9.39261 5.87328C9.35754 5.8195 9.33709 5.75751 9.33329 5.69342V3.69342C9.33329 3.06675 8.87329 2.32675 8.31329 2.04009C8.11329 1.94009 7.87995 1.94009 7.67995 2.04009C7.11995 2.32675 6.65995 3.07342 6.65995 3.70009V5.70009C6.65995 5.82009 6.56662 5.96009 6.45995 6.00675L2.73995 7.61342C2.32662 7.78009 1.99329 8.29342 1.99329 8.74009V9.60009C1.99329 10.1601 2.41329 10.4334 2.92662 10.2134L6.19995 8.80009C6.45329 8.68675 6.66662 8.82675 6.66662 9.10675V11.0068C6.66662 11.1601 6.57995 11.3734 6.47329 11.4801L4.95995 13.0001C4.79995 13.1601 4.72662 13.4668 4.79995 13.6868L5.09329 14.5734C5.21329 14.9601 5.65329 15.1468 6.01995 14.9601Z" stroke="#565656" stroke-width="1.1" stroke-linecap="round" stroke-linejoin="round"/>
</svg>
