<svg width="14" height="13" viewBox="0 0 14 13" fill="none" xmlns="http://www.w3.org/2000/svg">
<path d="M7.83193 1.19585L8.93193 3.39585C9.08193 3.7021 9.48193 3.99585 9.81943 4.0521L11.8132 4.38335C13.0882 4.59585 13.3882 5.52085 12.4694 6.43335L10.9194 7.98335C10.6569 8.24585 10.5132 8.7521 10.5944 9.1146L11.0382 11.0333C11.3882 12.5521 10.5819 13.1396 9.23818 12.3458L7.36943 11.2396C7.03193 11.0396 6.47568 11.0396 6.13193 11.2396L4.26318 12.3458C2.92568 13.1396 2.11318 12.5458 2.46318 11.0333L2.90693 9.1146C2.98818 8.7521 2.84443 8.24585 2.58193 7.98335L1.03193 6.43335C0.119426 5.52085 0.413176 4.59585 1.68818 4.38335L3.68193 4.0521C4.01318 3.99585 4.41318 3.7021 4.56318 3.39585L5.66318 1.19585C6.26318 0.00209963 7.23818 0.00209963 7.83193 1.19585Z" fill="#9747FF"/>
</svg>
