<svg width="13" height="13" viewBox="0 0 13 13" fill="none" xmlns="http://www.w3.org/2000/svg">
<path d="M7.33339 1.19585L8.43339 3.39585C8.58339 3.7021 8.98339 3.99585 9.32089 4.0521L11.3146 4.38335C12.5896 4.59585 12.8896 5.52085 11.9709 6.43335L10.4209 7.98335C10.1584 8.24585 10.0146 8.7521 10.0959 9.1146L10.5396 11.0333C10.8896 12.5521 10.0834 13.1396 8.73964 12.3458L6.87089 11.2396C6.53339 11.0396 5.97714 11.0396 5.63339 11.2396L3.76464 12.3458C2.42714 13.1396 1.61464 12.5458 1.96464 11.0333L2.40839 9.1146C2.48964 8.7521 2.34589 8.24585 2.08339 7.98335L0.53339 6.43335C-0.37911 5.52085 -0.0853594 4.59585 1.18964 4.38335L3.18339 4.0521C3.51464 3.99585 3.91464 3.7021 4.06464 3.39585L5.16464 1.19585C5.76464 0.00209963 6.73964 0.00209963 7.33339 1.19585Z" fill="#9747FF"/>
</svg>
